<svg xmlns="http://www.w3.org/2000/svg" width="20.739" height="19.52" viewBox="0 0 20.739 19.52">
  <path id="store-solid" d="M34.287,8.509a3.605,3.605,0,0,1-.461.031,3.34,3.34,0,0,1-2.482-1.106,3.347,3.347,0,0,1-4.972,0,3.343,3.343,0,0,1-4.968,0A3.343,3.343,0,0,1,18.917,8.54a3.717,3.717,0,0,1-.462-.031,2.971,2.971,0,0,1-1.979-4.552L18.662.5a1.078,1.078,0,0,1,.913-.5h13.6a1.077,1.077,0,0,1,.911.5l2.185,3.457a2.968,2.968,0,0,1-1.986,4.552Zm.16,1.209c.13-.019.316-.05.469-.088v7.45a2.442,2.442,0,0,1-2.44,2.44h-12.2a2.441,2.441,0,0,1-2.44-2.44V9.63a3.524,3.524,0,0,0,.456.088h0a4.72,4.72,0,0,0,.62.042,4.554,4.554,0,0,0,1.359-.206V14.64h12.2V9.558a4.643,4.643,0,0,0,1.35.2,4.724,4.724,0,0,0,.621-.042Z" transform="translate(-16.006)" fill="#646464"/>
</svg>
